<?xml version="1.0" encoding="utf-8"?>
<!-- Generator: Adobe Illustrator 18.1.1, SVG Export Plug-In . SVG Version: 6.00 Build 0)  -->
<svg version="1.1" id="Calque_1" xmlns="http://www.w3.org/2000/svg" xmlns:xlink="http://www.w3.org/1999/xlink" x="0px" y="0px"
	 viewBox="0 0 348.9 87.3" enable-background="new 0 0 348.9 87.3" xml:space="preserve">
<path fill="#1D1D1D" d="M41.1,34.3c2.8-3.8,4-8.5,3.9-13c0-7.5-3.7-14.6-9.1-17.8C32.6,1.3,27.7,0,17.3,0H0v66.4h7.4V6.5h10.4
	c6,0,10.1,0.3,13.5,2.4c4.1,2.7,6.5,7.9,6.5,12.8c0,4.8-1.5,8.8-5,12.2c-3.6,3.3-10,3.4-14.7,3.4H16l18.7,29h8.1L26.3,41.5
	C32.4,40.9,37.1,39.6,41.1,34.3z"/>
<path fill="#1D1D1D" d="M92.5,23.6c-4.6-4.4-10.9-6.8-17.7-6.8c-14.4,0-25.4,11.4-25.4,25.6c0,12,8.7,25.4,25.5,25.4
	c4.9,0,9.7-1.3,13.7-3.9c4.1-2.6,7.5-6.5,9.8-11.8h-6.9c-3.1,6.3-9.1,10-16.6,10c-8.2,0.1-18.5-5.7-18.8-17.8h44
	C100.7,36.4,98.1,29,92.5,23.6z M74.9,22.4c10-0.3,18.1,8,18.6,16.4H56.2C56.8,30,64.5,22.4,74.9,22.4z"/>
<path fill="#1D1D1D" d="M151.2,28.1c-2.7-5.9-10-11.3-19.6-11.3c-14.7,0-25.2,11.1-25.2,25.6c0,13.9,10.1,25.4,25.2,25.4
	c9.3,0,16.1-4.8,19.5-11.6v6.2c0,12-9.4,19.2-18.7,19.2c-3.1,0-7.2-1-10.7-3.5c-2.9-2-4.6-4.3-5.7-6.4h-7.6
	c3,8.7,11.8,15.6,23.9,15.6c6.5,0,13.5-2.8,18.3-7.4c4.2-4,7.2-9.9,7.2-19V18.1h-6.5V28.1z M146,56c-3.4,3.5-8.1,5.6-13.5,5.6
	C120,61.5,113,52,113,42.2v-0.1c0-11.3,8.6-19.2,19.2-19.2c6.9,0,11.8,2.9,14.7,6.7c3,3.9,4.4,8.6,4.4,12.6
	C151.3,47.6,149.3,52.5,146,56z"/>
<path fill="#1D1D1D" d="M212.4,28.3c-2.3-5.5-9.4-11.5-19.7-11.5c-14.7,0-25,11.3-25,25.5c0,13.3,9.3,25.5,25,25.5
	c8.6,0,16-4,19.7-11.3v10h6.6V18.1h-6.6V28.3z M210.9,49.8c-2.6,6.8-8.9,11.8-17.4,11.8c-13.3,0-19.3-10.5-19.4-19.2v-0.1
	c0-10.8,8.1-19.4,19.2-19.4c8.5,0,15,4.9,17.7,11.6c1.1,2.3,1.6,5,1.5,7.7C212.5,44.8,212,47.5,210.9,49.8z"/>
<path fill="#1D1D1D" d="M238.2,26v-7.9h-6.3v48.3h6.5V40.1c0-10.9,5.2-16.8,14.5-16.8h0.6v-6.5C248,17,241.7,18.8,238.2,26z"/>
<path fill="#1D1D1D" d="M299.6,17.7v10.2c-2.2-5-9.1-11.1-19.7-11.1c-14.4,0-24.9,11-24.9,25.4c0,13.5,9.5,25.6,24.9,25.6
	c10,0,16.5-4.9,19.9-11.3v10h6.4V0h-6.6V17.7z M294.6,55.9c-3.4,3.5-8.3,5.7-13.7,5.7c-12.6,0-19.3-9.6-19.4-19.3v-0.1
	c0-10.9,8.2-19.3,19.3-19.3c5.4,0,10.2,2.1,13.6,5.6c3.5,3.4,5.6,8.1,5.6,13.5C300.2,47.4,298.1,52.3,294.6,55.9z"/>
<path fill="#1D1D1D" d="M333.9,38.2c-5.8-1.7-9.3-3.6-9.5-8.2c-0.2-4.2,3.1-7.8,8.3-7.8c4.8,0,8.2,2.9,8.2,8h6.5
	c-0.4-9.8-8-13.5-14.7-13.5c-8.2,0-15.1,5.1-15.1,13.8c0.2,7.6,5.6,10.4,12.5,12.5c8.3,2.4,11.9,4.7,12.1,10.1
	c0.1,4.9-3.8,9.1-9.3,9.1c-4.8,0-9.8-3-10-9.6h-6.5c0.1,10.1,8.7,15.1,16.5,15.1c9.2,0,16.3-6.5,16-15.3
	C348.6,42.1,340.9,40.1,333.9,38.2z"/>
</svg>
