<?xml version="1.0" encoding="utf-8"?>
<!-- Generator: Adobe Illustrator 18.1.1, SVG Export Plug-In . SVG Version: 6.00 Build 0)  -->
<svg version="1.1" baseProfile="tiny" id="Layer_2" xmlns="http://www.w3.org/2000/svg" xmlns:xlink="http://www.w3.org/1999/xlink"
	 x="0px" y="0px" viewBox="0 0 90 90" xml:space="preserve">
<circle fill="#FFFFFF" cx="45.7" cy="44.6" r="42.5"/>
<g>
	<g>
		<path fill="#93243A" d="M45,90c-12,0-23.3-4.7-31.8-13.2C4.7,68.3,0,57,0,45c0-12,4.7-23.3,13.2-31.8C21.7,4.7,33,0,45,0
			c12,0,23.3,4.7,31.8,13.2C85.3,21.7,90,33,90,45c0,12-4.7,23.3-13.2,31.8C68.3,85.3,57,90,45,90z M45,8c-9.9,0-19.2,3.8-26.2,10.8
			C11.8,25.8,8,35.1,8,45s3.8,19.2,10.8,26.2c7,7,16.3,10.8,26.2,10.8s19.2-3.8,26.2-10.8c7-7,10.8-16.3,10.8-26.2
			s-3.8-19.2-10.8-26.2C64.2,11.8,54.9,8,45,8z"/>
	</g>
	<g>
		<rect x="4" y="41" transform="matrix(0.7071 0.7071 -0.7071 0.7071 45.0007 -18.6393)" fill="#93243A" width="82" height="8"/>
	</g>
</g>
<g>
	<g>
		<path fill="#7F7F7F" d="M34.3,68.5c0.7-0.7,0.6-1.7,0.6-1.7l0.1-0.3c0,0,1.2-2.8-1.5-4.1c-2.8-1.3-4,1.5-4.1,1.5L29,64.8
			c-1.2-0.5-2.1-0.1-2.2,0.2c-0.3,0.6,0.1,1.2,0.4,1.6c0.5-0.4,1-0.3,1.1-0.3l-0.1,0.3c0,0-0.4-0.1-0.8,0.2c0,0-1.8,3.2,2.1,4.9
			c0,0-2.1-1.8-1.6-3.4c0.1,0.7,0.7,4.2,4.3,3.1c0,0-3.7,0.4-3.6-3.2c0,0,0,1.8,2.1,2.8c2.1,1,2.8-1.6,3-1.9l0,0
			c0.2,0.1,0.3,0.2,0.2,0.6C33.9,69.5,34.7,69.3,34.3,68.5z M34.7,66.4l-0.3,0.7c-1.2-0.4-1.9,0.3-1.9,0.3s-0.7-0.8-2.5-2.1
			c-0.3-0.2-0.5-0.3-0.7-0.4l0.4-0.8c0-0.1,1.2-2.5,3.7-1.4C35.8,63.9,34.7,66.3,34.7,66.4z"/>
	</g>
</g>
<g>
	<path fill="#7F7F7F" d="M47.8,65.9c-0.1,0-0.3,0-0.4-0.1l-27.5-8.5c-0.8-0.2-1.2-1.1-1-1.9c0.2-0.8,1.1-1.2,1.9-1l27.5,8.5
		c0.8,0.2,1.2,1.1,1,1.9C49,65.5,48.4,65.9,47.8,65.9z"/>
</g>
<g>
	<rect x="28.8" y="16.8" fill="#7F7F7F" width="38.5" height="5"/>
</g>
<g>
	<g>
		<path fill="#7F7F7F" d="M35.3,61.9c-0.6,0-1.3-0.2-1.8-0.7c-1-1-1-2.6,0-3.5l6-6.1l-5-7.2c-0.7-1-0.6-2.3,0.3-3.2l8.1-8.1
			c1-1,2.6-1,3.5,0c1,1,1,2.6,0,3.5l-6.6,6.6l5,7.2c0.7,1,0.6,2.3-0.3,3.2L37,61.2C36.5,61.7,35.9,61.9,35.3,61.9z"/>
	</g>
</g>
<g>
	<polygon fill="#7F7F7F" points="29.7,58.8 38.4,49.9 42.5,49.9 35.3,60.5 	"/>
</g>
<g>
	<g>
		<path fill="#7F7F7F" d="M58.3,38c1-0.9,1.1-2.5,0.1-3.5c-0.9-1-2.5-1.1-3.5-0.1L43,45.6l2.8,4.2c0.1,0,0.1-0.1,0.2-0.1L58.3,38z"
			/>
	</g>
</g>
<g>
	<rect x="47.3" y="26.1" fill="#7F7F7F" width="1" height="6.6"/>
</g>
<g>
	<rect x="50.9" y="24.7" fill="#7F7F7F" width="1" height="11.4"/>
</g>
</svg>
